<svg xmlns="http://www.w3.org/2000/svg" xmlns:xlink="http://www.w3.org/1999/xlink" viewBox="0,0,256,256" width="96px" height="96px"><defs><linearGradient x1="-5.862" y1="-5.864" x2="46.644" y2="46.642" gradientUnits="userSpaceOnUse" id="color-1"><stop offset="0" stop-color="#ffffff" stop-opacity="0.94902"></stop><stop offset="1" stop-color="#262626" stop-opacity="0.8"></stop></linearGradient><linearGradient x1="15.247" y1="14.257" x2="73.864" y2="84.113" gradientUnits="userSpaceOnUse" id="color-2"><stop offset="0" stop-color="#ffffff" stop-opacity="0.94902"></stop><stop offset="1" stop-color="#262626" stop-opacity="0.8"></stop></linearGradient></defs><g fill="none" fill-rule="nonzero" stroke="none" stroke-width="1" stroke-linecap="butt" stroke-linejoin="miter" stroke-miterlimit="10" stroke-dasharray="" stroke-dashoffset="0" font-family="none" font-weight="none" font-size="none" text-anchor="none" style="mix-blend-mode: normal"><g transform="scale(5.33333,5.33333)"><path d="M44,24c0,10.13 -7.52,18.5 -17.29,19.81v-14.81h2.49c1.48,0 2.74,-1.08 2.97,-2.54l0.53,-3.42h-5.99v-1.87c0,-2.18 0.71,-4.12 2.75,-4.12h1.29c1.1,0 2,-0.9 2,-2v-2.59c-0.58,-0.08 -1.8,-0.25 -4.11,-0.25c-4.81,0 -7.63,2.54 -7.63,8.34v2.49h-1.95c-1.66,0 -3,1.34 -3,3v2.96h4.95v14.78c-9.63,-1.45 -17.01,-9.75 -17.01,-19.78c0,-11.05 8.95,-20 20,-20c11.05,0 20,8.95 20,20z" fill="url(#color-1)"></path><path d="M26.71,21.17v1.87h5.99l-0.53,3.42c-0.23,1.46 -1.49,2.54 -2.97,2.54h-2.49v14.81c-0.89,0.13 -1.79,0.19 -2.71,0.19c-1.02,0 -2.02,-0.08 -2.99,-0.22v-14.78h-4.95v-2.96c0,-1.66 1.34,-3 3,-3h1.95v-2.49c0,-5.8 2.82,-8.34 7.63,-8.34c2.31,0 3.53,0.17 4.11,0.25v2.59c0,1.1 -0.9,2 -2,2h-1.29c-2.04,0 -2.75,1.94 -2.75,4.12z" fill="url(#color-2)"></path></g></g></svg>